<svg xmlns="http://www.w3.org/2000/svg" xmlns:xlink="http://www.w3.org/1999/xlink" width="162" zoomAndPan="magnify" viewBox="0 0 121.5 30.000001" height="40" preserveAspectRatio="xMidYMid meet" version="1.0"><defs><g/><clipPath id="71005fb465"><path d="M 22.503906 0 L 51.535156 0 L 51.535156 29.03125 L 22.503906 29.03125 Z M 22.503906 0 " clip-rule="nonzero"/></clipPath><clipPath id="213549c519"><path d="M 37.019531 0 C 29.003906 0 22.503906 6.5 22.503906 14.515625 C 22.503906 22.53125 29.003906 29.03125 37.019531 29.03125 C 45.035156 29.03125 51.535156 22.53125 51.535156 14.515625 C 51.535156 6.5 45.035156 0 37.019531 0 Z M 37.019531 0 " clip-rule="nonzero"/></clipPath><clipPath id="9e8107416f"><path d="M 11.023438 0 L 40.054688 0 L 40.054688 29.03125 L 11.023438 29.03125 Z M 11.023438 0 " clip-rule="nonzero"/></clipPath><clipPath id="db87f9bcdc"><path d="M 16.597656 2.789062 L 40.054688 2.789062 L 40.054688 26.246094 L 16.597656 26.246094 Z M 16.597656 2.789062 " clip-rule="nonzero"/></clipPath><clipPath id="3aede72f81"><path d="M 28.324219 2.789062 C 21.847656 2.789062 16.597656 8.039062 16.597656 14.515625 C 16.597656 20.992188 21.847656 26.246094 28.324219 26.246094 C 34.804688 26.246094 40.054688 20.992188 40.054688 14.515625 C 40.054688 8.039062 34.804688 2.789062 28.324219 2.789062 Z M 28.324219 2.789062 " clip-rule="nonzero"/></clipPath><clipPath id="4d1d7938b4"><path d="M 7.320312 2.789062 L 30.777344 2.789062 L 30.777344 26.246094 L 7.320312 26.246094 Z M 7.320312 2.789062 " clip-rule="nonzero"/></clipPath><clipPath id="3693f68094"><path d="M 9.953125 4.105469 L 30.777344 4.105469 L 30.777344 24.929688 L 9.953125 24.929688 Z M 9.953125 4.105469 " clip-rule="nonzero"/></clipPath><clipPath id="d996b3760c"><path d="M 20.367188 4.105469 C 14.613281 4.105469 9.953125 8.765625 9.953125 14.515625 C 9.953125 20.265625 14.613281 24.929688 20.367188 24.929688 C 26.117188 24.929688 30.777344 20.265625 30.777344 14.515625 C 30.777344 8.765625 26.117188 4.105469 20.367188 4.105469 Z M 20.367188 4.105469 " clip-rule="nonzero"/></clipPath><clipPath id="fb3d572b30"><path d="M 1.71875 4.105469 L 22.542969 4.105469 L 22.542969 24.929688 L 1.71875 24.929688 Z M 1.71875 4.105469 " clip-rule="nonzero"/></clipPath></defs><g clip-path="url(#71005fb465)"><g clip-path="url(#213549c519)"><path fill="#0f46c8" d="M 22.503906 0 L 51.535156 0 L 51.535156 29.03125 L 22.503906 29.03125 Z M 22.503906 0 " fill-opacity="1" fill-rule="nonzero"/></g></g><g clip-path="url(#9e8107416f)"><path fill="#ffffff" d="M 11.023438 0 L 40.054688 0 L 40.054688 29.03125 L 11.023438 29.03125 Z M 11.023438 0 " fill-opacity="1" fill-rule="nonzero"/></g><g clip-path="url(#db87f9bcdc)"><g clip-path="url(#3aede72f81)"><path fill="#3c82fa" d="M 16.597656 2.789062 L 40.054688 2.789062 L 40.054688 26.246094 L 16.597656 26.246094 Z M 16.597656 2.789062 " fill-opacity="1" fill-rule="nonzero"/></g></g><g clip-path="url(#4d1d7938b4)"><path fill="#ffffff" d="M 7.320312 2.789062 L 30.777344 2.789062 L 30.777344 26.246094 L 7.320312 26.246094 Z M 7.320312 2.789062 " fill-opacity="1" fill-rule="nonzero"/></g><g clip-path="url(#3693f68094)"><g clip-path="url(#d996b3760c)"><path fill="#7daafa" d="M 9.953125 4.105469 L 30.777344 4.105469 L 30.777344 24.929688 L 9.953125 24.929688 Z M 9.953125 4.105469 " fill-opacity="1" fill-rule="nonzero"/></g></g><g clip-path="url(#fb3d572b30)"><path fill="#ffffff" d="M 1.71875 4.105469 L 22.542969 4.105469 L 22.542969 24.929688 L 1.71875 24.929688 Z M 1.71875 4.105469 " fill-opacity="1" fill-rule="nonzero"/></g><g fill="#000000" fill-opacity="1"><g transform="translate(53.124799, 20.451616)"><g><path d="M 0.5625 0 L 0.5625 -4.515625 L 1.421875 -4.515625 L 1.421875 0 Z M 0.5625 0 "/></g></g></g><g fill="#000000" fill-opacity="1"><g transform="translate(55.098679, 20.451616)"><g><path d="M 3.703125 -1.40625 L 3.703125 -4.515625 L 4.546875 -4.515625 L 4.546875 0 L 3.71875 0 L 1.40625 -3.109375 L 1.40625 0 L 0.5625 0 L 0.5625 -4.515625 L 1.375 -4.515625 Z M 3.703125 -1.40625 "/></g></g></g><g fill="#000000" fill-opacity="1"><g transform="translate(60.194646, 20.451616)"><g><path d="M 0.046875 -3.75 L 0.046875 -4.515625 L 3.734375 -4.515625 L 3.734375 -3.75 L 2.328125 -3.75 L 2.328125 0 L 1.453125 0 L 1.453125 -3.75 Z M 0.046875 -3.75 "/></g></g></g><g fill="#000000" fill-opacity="1"><g transform="translate(63.987593, 20.451616)"><g><path d="M 0.5625 0 L 0.5625 -4.515625 L 3.859375 -4.515625 L 3.859375 -3.765625 L 1.421875 -3.765625 L 1.421875 -2.640625 L 3.609375 -2.640625 L 3.609375 -1.890625 L 1.421875 -1.890625 L 1.421875 -0.75 L 3.9375 -0.75 L 3.9375 0 Z M 0.5625 0 "/></g></g></g><g fill="#000000" fill-opacity="1"><g transform="translate(68.251435, 20.451616)"><g><path d="M 4.375 0 L 3.375 0 L 2.59375 -1.328125 C 2.5625 -1.328125 2.507812 -1.328125 2.4375 -1.328125 L 1.421875 -1.328125 L 1.421875 0 L 0.5625 0 L 0.5625 -4.515625 L 2.4375 -4.515625 C 3.019531 -4.515625 3.46875 -4.378906 3.78125 -4.109375 C 4.101562 -3.835938 4.265625 -3.457031 4.265625 -2.96875 C 4.265625 -2.613281 4.1875 -2.3125 4.03125 -2.0625 C 3.882812 -1.8125 3.664062 -1.625 3.375 -1.5 Z M 1.421875 -3.765625 L 1.421875 -2.09375 L 2.4375 -2.09375 C 2.757812 -2.09375 3.007812 -2.160156 3.1875 -2.296875 C 3.363281 -2.441406 3.453125 -2.65625 3.453125 -2.9375 C 3.453125 -3.207031 3.363281 -3.410156 3.1875 -3.546875 C 3.007812 -3.691406 2.757812 -3.765625 2.4375 -3.765625 Z M 1.421875 -3.765625 "/></g></g></g><g fill="#000000" fill-opacity="1"><g transform="translate(72.915214, 20.451616)"><g><path d="M 3.703125 -1.40625 L 3.703125 -4.515625 L 4.546875 -4.515625 L 4.546875 0 L 3.71875 0 L 1.40625 -3.109375 L 1.40625 0 L 0.5625 0 L 0.5625 -4.515625 L 1.375 -4.515625 Z M 3.703125 -1.40625 "/></g></g></g><g fill="#000000" fill-opacity="1"><g transform="translate(78.011181, 20.451616)"><g><path d="M 2.609375 -4.578125 C 3.054688 -4.578125 3.460938 -4.472656 3.828125 -4.265625 C 4.191406 -4.066406 4.476562 -3.789062 4.6875 -3.4375 C 4.90625 -3.082031 5.015625 -2.691406 5.015625 -2.265625 C 5.015625 -1.835938 4.90625 -1.445312 4.6875 -1.09375 C 4.476562 -0.738281 4.191406 -0.457031 3.828125 -0.25 C 3.460938 -0.0390625 3.054688 0.0625 2.609375 0.0625 C 2.160156 0.0625 1.75 -0.0390625 1.375 -0.25 C 1.007812 -0.457031 0.722656 -0.738281 0.515625 -1.09375 C 0.304688 -1.445312 0.203125 -1.835938 0.203125 -2.265625 C 0.203125 -2.691406 0.304688 -3.082031 0.515625 -3.4375 C 0.722656 -3.789062 1.007812 -4.066406 1.375 -4.265625 C 1.75 -4.472656 2.160156 -4.578125 2.609375 -4.578125 Z M 2.625 -3.796875 C 2.34375 -3.796875 2.082031 -3.726562 1.84375 -3.59375 C 1.613281 -3.457031 1.425781 -3.269531 1.28125 -3.03125 C 1.144531 -2.800781 1.078125 -2.546875 1.078125 -2.265625 C 1.078125 -1.984375 1.144531 -1.722656 1.28125 -1.484375 C 1.425781 -1.242188 1.613281 -1.054688 1.84375 -0.921875 C 2.082031 -0.785156 2.34375 -0.71875 2.625 -0.71875 C 2.894531 -0.71875 3.144531 -0.785156 3.375 -0.921875 C 3.601562 -1.054688 3.785156 -1.242188 3.921875 -1.484375 C 4.054688 -1.722656 4.125 -1.984375 4.125 -2.265625 C 4.125 -2.546875 4.054688 -2.800781 3.921875 -3.03125 C 3.785156 -3.269531 3.601562 -3.457031 3.375 -3.59375 C 3.144531 -3.726562 2.894531 -3.796875 2.625 -3.796875 Z M 2.625 -3.796875 "/></g></g></g><g fill="#000000" fill-opacity="1"><g transform="translate(53.124799, 10.872641)"><g><path d="M 4.375 0 L 3.375 0 L 2.59375 -1.328125 C 2.5625 -1.328125 2.507812 -1.328125 2.4375 -1.328125 L 1.421875 -1.328125 L 1.421875 0 L 0.5625 0 L 0.5625 -4.515625 L 2.4375 -4.515625 C 3.019531 -4.515625 3.46875 -4.378906 3.78125 -4.109375 C 4.101562 -3.835938 4.265625 -3.457031 4.265625 -2.96875 C 4.265625 -2.613281 4.1875 -2.3125 4.03125 -2.0625 C 3.882812 -1.8125 3.664062 -1.625 3.375 -1.5 Z M 1.421875 -3.765625 L 1.421875 -2.09375 L 2.4375 -2.09375 C 2.757812 -2.09375 3.007812 -2.160156 3.1875 -2.296875 C 3.363281 -2.441406 3.453125 -2.65625 3.453125 -2.9375 C 3.453125 -3.207031 3.363281 -3.410156 3.1875 -3.546875 C 3.007812 -3.691406 2.757812 -3.765625 2.4375 -3.765625 Z M 1.421875 -3.765625 "/></g></g></g><g fill="#000000" fill-opacity="1"><g transform="translate(57.788578, 10.872641)"><g><path d="M 0.5625 0 L 0.5625 -4.515625 L 3.859375 -4.515625 L 3.859375 -3.765625 L 1.421875 -3.765625 L 1.421875 -2.640625 L 3.609375 -2.640625 L 3.609375 -1.890625 L 1.421875 -1.890625 L 1.421875 -0.75 L 3.9375 -0.75 L 3.9375 0 Z M 0.5625 0 "/></g></g></g><g fill="#000000" fill-opacity="1"><g transform="translate(62.052419, 10.872641)"><g><path d="M 3.828125 -3.21875 C 3.671875 -3.394531 3.484375 -3.535156 3.265625 -3.640625 C 3.046875 -3.742188 2.820312 -3.796875 2.59375 -3.796875 C 2.320312 -3.796875 2.066406 -3.726562 1.828125 -3.59375 C 1.597656 -3.46875 1.414062 -3.285156 1.28125 -3.046875 C 1.144531 -2.816406 1.078125 -2.5625 1.078125 -2.28125 C 1.078125 -2 1.144531 -1.738281 1.28125 -1.5 C 1.414062 -1.269531 1.597656 -1.085938 1.828125 -0.953125 C 2.066406 -0.816406 2.320312 -0.75 2.59375 -0.75 C 2.8125 -0.75 3.03125 -0.796875 3.25 -0.890625 C 3.46875 -0.984375 3.660156 -1.113281 3.828125 -1.28125 L 4.34375 -0.71875 C 4.101562 -0.476562 3.828125 -0.285156 3.515625 -0.140625 C 3.203125 -0.00390625 2.882812 0.0625 2.5625 0.0625 C 2.125 0.0625 1.722656 -0.0390625 1.359375 -0.25 C 0.992188 -0.457031 0.707031 -0.738281 0.5 -1.09375 C 0.300781 -1.445312 0.203125 -1.835938 0.203125 -2.265625 C 0.203125 -2.691406 0.304688 -3.082031 0.515625 -3.4375 C 0.722656 -3.789062 1.007812 -4.066406 1.375 -4.265625 C 1.738281 -4.472656 2.144531 -4.578125 2.59375 -4.578125 C 2.914062 -4.578125 3.226562 -4.507812 3.53125 -4.375 C 3.84375 -4.25 4.109375 -4.070312 4.328125 -3.84375 Z M 3.828125 -3.21875 "/></g></g></g><g fill="#000000" fill-opacity="1"><g transform="translate(66.542033, 10.872641)"><g><path d="M 4.375 0 L 3.375 0 L 2.59375 -1.328125 C 2.5625 -1.328125 2.507812 -1.328125 2.4375 -1.328125 L 1.421875 -1.328125 L 1.421875 0 L 0.5625 0 L 0.5625 -4.515625 L 2.4375 -4.515625 C 3.019531 -4.515625 3.46875 -4.378906 3.78125 -4.109375 C 4.101562 -3.835938 4.265625 -3.457031 4.265625 -2.96875 C 4.265625 -2.613281 4.1875 -2.3125 4.03125 -2.0625 C 3.882812 -1.8125 3.664062 -1.625 3.375 -1.5 Z M 1.421875 -3.765625 L 1.421875 -2.09375 L 2.4375 -2.09375 C 2.757812 -2.09375 3.007812 -2.160156 3.1875 -2.296875 C 3.363281 -2.441406 3.453125 -2.65625 3.453125 -2.9375 C 3.453125 -3.207031 3.363281 -3.410156 3.1875 -3.546875 C 3.007812 -3.691406 2.757812 -3.765625 2.4375 -3.765625 Z M 1.421875 -3.765625 "/></g></g></g><g fill="#000000" fill-opacity="1"><g transform="translate(71.205812, 10.872641)"><g><path d="M 1.328125 -1.859375 C 1.328125 -1.503906 1.425781 -1.222656 1.625 -1.015625 C 1.832031 -0.816406 2.109375 -0.71875 2.453125 -0.71875 C 2.796875 -0.71875 3.0625 -0.816406 3.25 -1.015625 C 3.445312 -1.222656 3.546875 -1.503906 3.546875 -1.859375 L 3.546875 -4.515625 L 4.40625 -4.515625 L 4.40625 -1.859375 C 4.40625 -1.460938 4.328125 -1.117188 4.171875 -0.828125 C 4.015625 -0.546875 3.785156 -0.328125 3.484375 -0.171875 C 3.191406 -0.015625 2.847656 0.0625 2.453125 0.0625 C 2.046875 0.0625 1.691406 -0.015625 1.390625 -0.171875 C 1.097656 -0.328125 0.867188 -0.546875 0.703125 -0.828125 C 0.546875 -1.117188 0.46875 -1.460938 0.46875 -1.859375 L 0.46875 -4.515625 L 1.328125 -4.515625 Z M 1.328125 -1.859375 "/></g></g></g><g fill="#000000" fill-opacity="1"><g transform="translate(76.08246, 10.872641)"><g><path d="M 0.046875 -3.75 L 0.046875 -4.515625 L 3.734375 -4.515625 L 3.734375 -3.75 L 2.328125 -3.75 L 2.328125 0 L 1.453125 0 L 1.453125 -3.75 Z M 0.046875 -3.75 "/></g></g></g><g fill="#000000" fill-opacity="1"><g transform="translate(79.875407, 10.872641)"><g><path d="M 4.828125 0 L 3.890625 0 L 3.5 -0.953125 L 1.296875 -0.953125 L 0.890625 0 L 0 0 L 1.96875 -4.515625 L 2.875 -4.515625 Z M 2.40625 -3.59375 L 1.59375 -1.703125 L 3.1875 -1.703125 Z M 2.40625 -3.59375 "/></g></g></g><g fill="#000000" fill-opacity="1"><g transform="translate(84.693999, 10.872641)"><g><path d="M 0.5625 0 L 0.5625 -4.515625 L 1.546875 -4.515625 L 3.046875 -1.609375 L 4.53125 -4.515625 L 5.515625 -4.515625 L 5.515625 0 L 4.71875 0 L 4.71875 -3.234375 L 3.3125 -0.46875 L 2.75 -0.46875 L 1.34375 -3.234375 L 1.34375 0 Z M 0.5625 0 "/></g></g></g><g fill="#000000" fill-opacity="1"><g transform="translate(90.757554, 10.872641)"><g><path d="M 0.5625 0 L 0.5625 -4.515625 L 3.859375 -4.515625 L 3.859375 -3.765625 L 1.421875 -3.765625 L 1.421875 -2.640625 L 3.609375 -2.640625 L 3.609375 -1.890625 L 1.421875 -1.890625 L 1.421875 -0.75 L 3.9375 -0.75 L 3.9375 0 Z M 0.5625 0 "/></g></g></g><g fill="#000000" fill-opacity="1"><g transform="translate(95.021396, 10.872641)"><g><path d="M 3.703125 -1.40625 L 3.703125 -4.515625 L 4.546875 -4.515625 L 4.546875 0 L 3.71875 0 L 1.40625 -3.109375 L 1.40625 0 L 0.5625 0 L 0.5625 -4.515625 L 1.375 -4.515625 Z M 3.703125 -1.40625 "/></g></g></g><g fill="#000000" fill-opacity="1"><g transform="translate(100.117363, 10.872641)"><g><path d="M 0.046875 -3.75 L 0.046875 -4.515625 L 3.734375 -4.515625 L 3.734375 -3.75 L 2.328125 -3.75 L 2.328125 0 L 1.453125 0 L 1.453125 -3.75 Z M 0.046875 -3.75 "/></g></g></g><g fill="#000000" fill-opacity="1"><g transform="translate(103.910307, 10.872641)"><g><path d="M 2.609375 -4.578125 C 3.054688 -4.578125 3.460938 -4.472656 3.828125 -4.265625 C 4.191406 -4.066406 4.476562 -3.789062 4.6875 -3.4375 C 4.90625 -3.082031 5.015625 -2.691406 5.015625 -2.265625 C 5.015625 -1.835938 4.90625 -1.445312 4.6875 -1.09375 C 4.476562 -0.738281 4.191406 -0.457031 3.828125 -0.25 C 3.460938 -0.0390625 3.054688 0.0625 2.609375 0.0625 C 2.160156 0.0625 1.75 -0.0390625 1.375 -0.25 C 1.007812 -0.457031 0.722656 -0.738281 0.515625 -1.09375 C 0.304688 -1.445312 0.203125 -1.835938 0.203125 -2.265625 C 0.203125 -2.691406 0.304688 -3.082031 0.515625 -3.4375 C 0.722656 -3.789062 1.007812 -4.066406 1.375 -4.265625 C 1.75 -4.472656 2.160156 -4.578125 2.609375 -4.578125 Z M 2.625 -3.796875 C 2.34375 -3.796875 2.082031 -3.726562 1.84375 -3.59375 C 1.613281 -3.457031 1.425781 -3.269531 1.28125 -3.03125 C 1.144531 -2.800781 1.078125 -2.546875 1.078125 -2.265625 C 1.078125 -1.984375 1.144531 -1.722656 1.28125 -1.484375 C 1.425781 -1.242188 1.613281 -1.054688 1.84375 -0.921875 C 2.082031 -0.785156 2.34375 -0.71875 2.625 -0.71875 C 2.894531 -0.71875 3.144531 -0.785156 3.375 -0.921875 C 3.601562 -1.054688 3.785156 -1.242188 3.921875 -1.484375 C 4.054688 -1.722656 4.125 -1.984375 4.125 -2.265625 C 4.125 -2.546875 4.054688 -2.800781 3.921875 -3.03125 C 3.785156 -3.269531 3.601562 -3.457031 3.375 -3.59375 C 3.144531 -3.726562 2.894531 -3.796875 2.625 -3.796875 Z M 2.625 -3.796875 "/></g></g></g></svg>