<svg viewBox="0 0 396 80" fill="none" xmlns="http://www.w3.org/2000/svg">
<g clip-path="url(#clip0_1_58)">
<path d="M273.79 29.39H270.86V28.37H277.94V29.39H275V37.38H273.79V29.39Z" fill="#000A28"/>
<path d="M278.79 34.3C278.8 35.64 279.48 36.59 280.6 36.59C281.65 36.59 281.99 36.05 282.2 35.57H283.35C283.09 36.41 282.38 37.53 280.57 37.53C278.49 37.53 277.64 35.85 277.64 34.16C277.64 32.21 278.63 30.65 280.64 30.65C282.77 30.65 283.47 32.35 283.47 33.75C283.47 33.95 283.47 34.12 283.45 34.29H278.79V34.3ZM282.31 33.5C282.3 32.42 281.75 31.55 280.62 31.55C279.46 31.55 278.94 32.35 278.83 33.5H282.31Z" fill="#000A28"/>
<path d="M290.62 35.37C290.34 36.5 289.57 37.54 287.89 37.54C286.07 37.54 284.94 36.24 284.94 34.14C284.94 32.28 286 30.66 287.97 30.66C289.88 30.66 290.54 32.01 290.62 32.86H289.49C289.33 32.19 288.9 31.61 287.95 31.61C286.78 31.61 286.12 32.61 286.12 34.1C286.12 35.6 286.76 36.6 287.91 36.6C288.74 36.6 289.22 36.16 289.49 35.38H290.62V35.37Z" fill="#000A28"/>
<path d="M292.39 32.46C292.39 31.89 292.39 31.31 292.38 30.8H293.49C293.52 30.99 293.54 31.68 293.53 31.88C293.79 31.32 294.33 30.65 295.61 30.65C296.85 30.65 297.82 31.4 297.82 33.15V37.37H296.68V33.3C296.68 32.31 296.29 31.64 295.28 31.64C294.03 31.64 293.53 32.58 293.53 33.9V37.38H292.39V32.46Z" fill="#000A28"/>
<path d="M305.85 34.08C305.85 35.97 304.76 37.53 302.74 37.53C300.84 37.53 299.7 36.07 299.7 34.1C299.7 32.16 300.82 30.65 302.82 30.65C304.64 30.65 305.85 32.02 305.85 34.08ZM300.87 34.09C300.87 35.53 301.59 36.58 302.78 36.58C303.99 36.58 304.67 35.58 304.67 34.09C304.67 32.61 303.99 31.59 302.75 31.59C301.52 31.6 300.87 32.59 300.87 34.09Z" fill="#000A28"/>
<path d="M307.73 37.38V27.87H308.87V37.38H307.73Z" fill="#000A28"/>
<path d="M316.89 34.08C316.89 35.97 315.8 37.53 313.78 37.53C311.88 37.53 310.74 36.07 310.74 34.1C310.74 32.16 311.86 30.65 313.86 30.65C315.69 30.65 316.89 32.02 316.89 34.08ZM311.91 34.09C311.91 35.53 312.63 36.58 313.82 36.58C315.03 36.58 315.71 35.58 315.71 34.09C315.71 32.61 315.03 31.59 313.79 31.59C312.56 31.6 311.91 32.59 311.91 34.09Z" fill="#000A28"/>
<path d="M324.3 36.78C324.3 38.88 323.42 40.08 321.26 40.08C319.25 40.08 318.64 38.96 318.52 38.07H319.68C319.87 38.79 320.46 39.17 321.31 39.17C322.81 39.17 323.18 38.22 323.18 36.71V36.18C322.83 36.92 322.22 37.33 321.11 37.33C319.48 37.33 318.37 36.01 318.37 34.09C318.37 31.95 319.63 30.64 321.23 30.64C322.49 30.64 323.03 31.23 323.18 31.67C323.19 31.37 323.22 30.94 323.23 30.8H324.31C324.31 31.18 324.29 32.07 324.29 32.7V36.78H324.3ZM319.57 34.05C319.57 35.44 320.3 36.38 321.38 36.38C322.81 36.38 323.22 35.43 323.22 33.97C323.22 32.49 322.83 31.62 321.41 31.62C320.19 31.61 319.57 32.63 319.57 34.05Z" fill="#000A28"/>
<path d="M326.64 27.87H327.78V29.29H326.64V27.87ZM326.64 30.81H327.78V37.38H326.64V30.81Z" fill="#000A28"/>
<path d="M334.97 35.94C334.97 36.54 335.02 37.18 335.06 37.37H333.97C333.92 37.22 333.88 36.91 333.86 36.51C333.63 36.95 333.1 37.53 331.82 37.53C330.26 37.53 329.59 36.52 329.59 35.52C329.59 34.05 330.75 33.38 332.72 33.38C333.18 33.38 333.6 33.38 333.85 33.38V32.82C333.85 32.24 333.66 31.53 332.43 31.53C331.32 31.53 331.14 32.07 331.02 32.59H329.91C330 31.68 330.56 30.64 332.46 30.64C334.08 30.64 334.97 31.3 334.97 32.79V35.94ZM333.86 34.17C333.65 34.17 333.15 34.17 332.79 34.17C331.47 34.17 330.76 34.53 330.76 35.46C330.76 36.14 331.23 36.64 332.05 36.64C333.64 36.64 333.86 35.57 333.86 34.38V34.17Z" fill="#000A28"/>
<path d="M345.4 36.43C345.06 37.12 344.45 37.53 343.31 37.53C341.81 37.53 340.56 36.35 340.56 34.16C340.56 31.95 341.88 30.65 343.47 30.65C344.7 30.65 345.24 31.21 345.4 31.64C345.4 31.4 345.42 31.07 345.44 30.81H346.52C346.51 31.49 346.51 32.02 346.51 32.62V39.96H345.4V36.43ZM341.74 34.12C341.74 35.44 342.32 36.57 343.58 36.57C345.01 36.57 345.42 35.6 345.42 34.06C345.42 32.52 345.05 31.62 343.62 31.62C342.39 31.62 341.74 32.66 341.74 34.12Z" fill="#000A28"/>
<path d="M354.16 35.46C354.16 36.1 354.17 36.99 354.17 37.37H353.06C353.03 37.2 353.02 36.8 353.02 36.39C352.7 37.12 352.06 37.53 351.02 37.53C349.91 37.53 348.83 36.98 348.83 35.13V30.81H349.96V34.89C349.96 35.75 350.23 36.55 351.33 36.55C352.55 36.55 353.02 35.88 353.02 34.24V30.81H354.16V35.46Z" fill="#000A28"/>
<path d="M357.21 34.3C357.22 35.64 357.9 36.59 359.02 36.59C360.07 36.59 360.41 36.05 360.62 35.57H361.77C361.51 36.41 360.8 37.53 358.99 37.53C356.91 37.53 356.06 35.85 356.06 34.16C356.06 32.21 357.05 30.65 359.06 30.65C361.19 30.65 361.89 32.35 361.89 33.75C361.89 33.95 361.89 34.12 361.87 34.29H357.21V34.3ZM360.73 33.5C360.72 32.42 360.17 31.55 359.04 31.55C357.88 31.55 357.36 32.35 357.25 33.5H360.73Z" fill="#000A28"/>
<path d="M276.96 51.39C276.68 52.52 275.91 53.56 274.23 53.56C272.41 53.56 271.28 52.26 271.28 50.16C271.28 48.3 272.34 46.68 274.31 46.68C276.22 46.68 276.88 48.03 276.96 48.88H275.83C275.67 48.21 275.24 47.63 274.29 47.63C273.12 47.63 272.46 48.63 272.46 50.12C272.46 51.62 273.1 52.62 274.25 52.62C275.08 52.62 275.56 52.18 275.83 51.4H276.96V51.39Z" fill="#000A28"/>
<path d="M284.48 50.11C284.48 52 283.39 53.56 281.37 53.56C279.47 53.56 278.33 52.1 278.33 50.13C278.33 48.19 279.45 46.68 281.45 46.68C283.28 46.68 284.48 48.04 284.48 50.11ZM279.5 50.12C279.5 51.56 280.22 52.61 281.41 52.61C282.62 52.61 283.3 51.61 283.3 50.12C283.3 48.64 282.62 47.62 281.38 47.62C280.15 47.63 279.5 48.62 279.5 50.12Z" fill="#000A28"/>
<path d="M286.36 48.49C286.36 47.92 286.36 47.34 286.35 46.83H287.46C287.49 47.02 287.51 47.71 287.5 47.91C287.76 47.35 288.3 46.68 289.58 46.68C290.82 46.68 291.79 47.43 291.79 49.18V53.4H290.65V49.32C290.65 48.33 290.26 47.66 289.25 47.66C288 47.66 287.5 48.6 287.5 49.92V53.4H286.36V48.49Z" fill="#000A28"/>
<path d="M298.5 52.46C298.16 53.15 297.55 53.56 296.41 53.56C294.91 53.56 293.66 52.38 293.66 50.19C293.66 47.98 294.98 46.68 296.57 46.68C297.8 46.68 298.34 47.24 298.5 47.67C298.5 47.43 298.52 47.1 298.54 46.84H299.62C299.61 47.52 299.61 48.05 299.61 48.65V55.99H298.5V52.46ZM294.85 50.14C294.85 51.46 295.43 52.59 296.69 52.59C298.12 52.59 298.53 51.62 298.53 50.08C298.53 48.54 298.16 47.64 296.73 47.64C295.49 47.65 294.85 48.69 294.85 50.14Z" fill="#000A28"/>
<path d="M307.27 51.49C307.27 52.13 307.28 53.02 307.28 53.4H306.17C306.14 53.23 306.13 52.83 306.13 52.42C305.81 53.15 305.17 53.56 304.13 53.56C303.02 53.56 301.94 53.01 301.94 51.16V46.84H303.07V50.92C303.07 51.78 303.34 52.58 304.44 52.58C305.66 52.58 306.13 51.91 306.13 50.27V46.84H307.27V51.49Z" fill="#000A28"/>
<path d="M309.62 43.89H310.76V45.31H309.62V43.89ZM309.62 46.83H310.76V53.4H309.62V46.83Z" fill="#000A28"/>
<path d="M313.59 51.52C313.78 52.24 314.32 52.66 315.21 52.66C316.18 52.66 316.56 52.24 316.56 51.65C316.56 51.04 316.26 50.75 314.99 50.45C313.1 49.99 312.7 49.42 312.7 48.53C312.7 47.6 313.39 46.68 315.09 46.68C316.8 46.68 317.5 47.66 317.58 48.58H316.47C316.38 48.16 316.05 47.56 315.03 47.56C314.1 47.56 313.83 48 313.83 48.43C313.83 48.92 314.1 49.16 315.31 49.45C317.32 49.92 317.72 50.59 317.72 51.56C317.72 52.71 316.8 53.55 315.15 53.55C313.44 53.55 312.6 52.69 312.43 51.52H313.59Z" fill="#000A28"/>
<path d="M318.69 46.83H319.83V44.9H320.97V46.84H322.43V47.77H320.97V51.62C320.97 52.26 321.13 52.59 321.72 52.59C321.88 52.59 322.12 52.58 322.3 52.54V53.39C322.02 53.49 321.63 53.51 321.31 53.51C320.28 53.51 319.82 52.98 319.82 51.89V47.78H318.68V46.83H318.69Z" fill="#000A28"/>
<path d="M329 51.97C329 52.57 329.05 53.21 329.09 53.4H328C327.95 53.25 327.91 52.94 327.89 52.54C327.66 52.98 327.13 53.56 325.85 53.56C324.29 53.56 323.62 52.55 323.62 51.55C323.62 50.08 324.78 49.41 326.75 49.41C327.21 49.41 327.63 49.41 327.88 49.41V48.85C327.88 48.27 327.69 47.56 326.46 47.56C325.35 47.56 325.17 48.1 325.05 48.62H323.94C324.03 47.71 324.59 46.67 326.49 46.67C328.11 46.67 329 47.33 329 48.82V51.97ZM327.88 50.2C327.67 50.2 327.17 50.2 326.81 50.2C325.49 50.2 324.78 50.56 324.78 51.49C324.78 52.17 325.25 52.67 326.07 52.67C327.66 52.67 327.88 51.6 327.88 50.41V50.2Z" fill="#000A28"/>
<path d="M335.05 43.89H336.19V47.77C336.49 47.21 337.1 46.68 338.3 46.68C339.96 46.68 341.01 48.04 341.01 49.99C341.01 51.99 340 53.56 338.13 53.56C337.07 53.56 336.52 53.17 336.18 52.54C336.18 52.88 336.16 53.23 336.14 53.41H335.04C335.05 52.68 335.05 51.94 335.05 51.2V43.89ZM339.84 50.01C339.84 48.59 339.19 47.64 338.04 47.64C336.63 47.64 336.14 48.58 336.14 50.14C336.14 51.51 336.58 52.6 337.99 52.6C339.15 52.6 339.84 51.61 339.84 50.01Z" fill="#000A28"/>
<path d="M343.65 50.32C343.66 51.66 344.34 52.61 345.46 52.61C346.51 52.61 346.85 52.07 347.06 51.59H348.21C347.95 52.43 347.24 53.55 345.43 53.55C343.35 53.55 342.5 51.87 342.5 50.18C342.5 48.23 343.49 46.67 345.5 46.67C347.63 46.67 348.33 48.37 348.33 49.77C348.33 49.97 348.33 50.14 348.31 50.31H343.65V50.32ZM347.18 49.52C347.17 48.44 346.62 47.57 345.49 47.57C344.33 47.57 343.81 48.37 343.7 49.52H347.18Z" fill="#000A28"/>
<path d="M350.2 48.53C350.2 47.96 350.2 47.37 350.19 46.84H351.29C351.31 47.04 351.34 47.52 351.33 47.85C351.63 47.26 352.21 46.68 353.25 46.68C354.19 46.68 354.83 47.15 355.08 47.86C355.43 47.24 356.06 46.68 357.19 46.68C358.26 46.68 359.28 47.31 359.28 49.09V53.41H358.16V49.23C358.16 48.47 357.88 47.66 356.85 47.66C355.77 47.66 355.31 48.47 355.31 49.63V53.4H354.19V49.26C354.19 48.42 353.95 47.66 352.91 47.66C351.85 47.66 351.34 48.51 351.34 49.77V53.41H350.21V48.53H350.2Z" fill="#000A28"/>
<path d="M364.75 49.57V50.6H361.32V49.57H364.75Z" fill="#000A28"/>
<path d="M367.67 50.32C367.68 51.66 368.36 52.61 369.48 52.61C370.53 52.61 370.87 52.07 371.08 51.59H372.23C371.97 52.43 371.26 53.55 369.45 53.55C367.37 53.55 366.52 51.87 366.52 50.18C366.52 48.23 367.51 46.67 369.52 46.67C371.65 46.67 372.35 48.37 372.35 49.77C372.35 49.97 372.35 50.14 372.33 50.31H367.67V50.32ZM371.19 49.52C371.18 48.44 370.63 47.57 369.5 47.57C368.34 47.57 367.82 48.37 367.71 49.52H371.19Z" fill="#000A28"/>
<path d="M374.86 51.52C375.05 52.24 375.59 52.66 376.48 52.66C377.45 52.66 377.83 52.24 377.83 51.65C377.83 51.04 377.53 50.75 376.26 50.45C374.37 49.99 373.97 49.42 373.97 48.53C373.97 47.6 374.66 46.68 376.36 46.68C378.07 46.68 378.77 47.66 378.85 48.58H377.74C377.65 48.16 377.32 47.56 376.3 47.56C375.37 47.56 375.1 48 375.1 48.43C375.1 48.92 375.37 49.16 376.58 49.45C378.59 49.92 378.99 50.59 378.99 51.56C378.99 52.71 378.07 53.55 376.42 53.55C374.71 53.55 373.87 52.69 373.7 51.52H374.86Z" fill="#000A28"/>
<path d="M379.96 46.83H381.1V44.9H382.24V46.84H383.7V47.77H382.24V51.62C382.24 52.26 382.4 52.59 382.99 52.59C383.15 52.59 383.39 52.58 383.57 52.54V53.39C383.29 53.49 382.9 53.51 382.58 53.51C381.55 53.51 381.09 52.98 381.09 51.89V47.78H379.95V46.83H379.96Z" fill="#000A28"/>
<path d="M390.27 51.97C390.27 52.57 390.32 53.21 390.36 53.4H389.27C389.22 53.25 389.18 52.94 389.16 52.54C388.93 52.98 388.4 53.56 387.12 53.56C385.56 53.56 384.89 52.55 384.89 51.55C384.89 50.08 386.05 49.41 388.02 49.41C388.48 49.41 388.9 49.41 389.15 49.41V48.85C389.15 48.27 388.96 47.56 387.73 47.56C386.62 47.56 386.44 48.1 386.32 48.62H385.21C385.3 47.71 385.86 46.67 387.76 46.67C389.38 46.67 390.27 47.33 390.27 48.82V51.97ZM389.15 50.2C388.94 50.2 388.44 50.2 388.08 50.2C386.76 50.2 386.05 50.56 386.05 51.49C386.05 52.17 386.52 52.67 387.34 52.67C388.93 52.67 389.15 51.6 389.15 50.41V50.2Z" fill="#000A28"/>
<path d="M392.63 48.62C392.63 47.7 392.62 47.18 392.62 46.83H393.74C393.76 47.01 393.78 47.53 393.78 48.17C394.13 47.28 394.91 46.71 396.01 46.67V47.8C394.65 47.84 393.78 48.54 393.78 50.2V53.39H392.64V48.62H392.63Z" fill="#000A28"/>
<path d="M0 19.63V60.37C8.03 57.05 13.68 49.18 13.68 40C13.68 30.82 8.03 22.95 0 19.63Z" fill="#7DAAFA"/>
<path d="M13.7 10.03V69.96C25.52 65.08 33.83 53.5 33.83 40C33.83 26.5 25.52 14.92 13.7 10.03Z" fill="#3C82FA"/>
<path d="M33.79 0V80C49.57 73.48 60.66 58.03 60.66 40C60.66 21.97 49.56 6.52 33.79 0Z" fill="#0F46C8"/>
<path d="M96.96 25.81H74.44V54.7H79.74V46.48H96.96C103.66 46.48 108.18 42.62 108.18 36.17C108.17 29.67 103.66 25.81 96.96 25.81ZM94.85 41.8H79.74V30.5H94.85C97.83 30.5 102.47 30.5 102.47 36.17C102.46 41.8 97.83 41.8 94.85 41.8Z" fill="#000A28"/>
<path d="M166.34 50.84C158.31 50.84 153.39 47.72 153.39 40.24C153.39 32.76 158.27 29.68 166.34 29.68C173.42 29.68 177.43 32.15 178.22 36.25H183.93C183.06 29.96 177.39 24.99 166.34 24.99C153.76 24.99 147.67 30.91 147.67 40.24C147.67 49.57 153.75 55.53 166.34 55.53C177.39 55.53 183.06 50.52 183.97 44.19H178.22C177.43 48.29 173.37 50.84 166.34 50.84Z" fill="#000A28"/>
<path d="M238.36 24.99C225.65 24.99 219.61 30.95 219.61 40.24C219.61 49.53 225.65 55.53 238.36 55.53C251.02 55.53 257.07 49.49 257.07 40.24C257.07 30.99 251.03 24.99 238.36 24.99ZM238.36 50.84C230.17 50.84 225.32 47.72 225.32 40.24C225.32 32.76 230.12 29.68 238.36 29.68C246.6 29.68 251.4 32.8 251.4 40.24C251.4 47.68 246.56 50.84 238.36 50.84Z" fill="#000A28"/>
<path d="M123.11 25.81L106.26 54.7H112.3L115.92 48.45L118.52 43.95L119.34 45.52C120.29 47.32 122.16 48.45 124.21 48.45H137.05L140.65 54.7H146.65L129.81 25.81H123.11ZM118.53 43.93L126.46 30.16L134.41 43.93H118.53Z" fill="#000A28"/>
<path d="M186.66 30.48H199.33V54.68H204.59V30.53L204.53 27.52L205.77 28.8C206.81 29.88 208.24 30.49 209.74 30.49H217.86V25.8H186.67V30.48H186.66Z" fill="#000A28"/>
</g>
<defs>
<clipPath id="clip0_1_58">
<rect width="396" height="80" fill="white"/>
</clipPath>
</defs>
</svg>
